<svg width="51" height="50" viewBox="0 0 51 50" fill="none" xmlns="http://www.w3.org/2000/svg">
<g clip-path="url(#clip0_34_307)">
<path d="M25.333 0C11.583 0 0.333008 11.25 0.333008 25C0.333008 38.75 11.583 50 25.333 50C39.083 50 50.333 38.75 50.333 25C50.333 11.25 39.083 0 25.333 0ZM25.333 48.3333C12.4997 48.3333 1.99971 37.8333 1.99971 25C1.99971 12.1667 12.4997 1.6667 25.333 1.6667C38.1663 1.6667 48.6663 12.1667 48.6663 25C48.6663 37.8333 38.1663 48.3333 25.333 48.3333Z" fill="black"/>
<path d="M25.333 5C15.7043 5 7.60811 11.896 5.73916 20.9931C5.71045 21.0495 5.68594 21.108 5.66631 21.1667C5.41631 22.4167 5.33301 23.75 5.33301 25C5.33301 25.9227 5.37881 26.8906 5.53662 27.837C6.73545 36.1851 13.1387 42.9118 21.3262 44.5938C21.3826 44.6226 21.4411 44.6471 21.4997 44.6666C22.7497 44.9166 24.083 44.9999 25.333 44.9999C26.19 44.9999 27.0861 44.9606 27.9409 44.8286C37.7204 43.5406 45.333 35.1165 45.333 25C45.333 14 36.333 5 25.333 5ZM40.8353 34.755L38.1663 34.25L36.333 30.6667C36.6663 30.0834 36.9163 29.5 37.083 28.8334L40.9163 27.5834L43.2041 29.0847C42.7356 31.1232 41.9242 33.0346 40.8353 34.755ZM43.4997 27.3333L41.583 26.0833C41.333 25.9166 41.083 25.9166 40.833 26L36.2497 27.5C35.9997 27.5833 35.833 27.8333 35.7497 28.0833C35.583 28.8333 35.2497 29.5833 34.833 30.3333C34.7497 30.5833 34.7497 30.8333 34.833 31.0833L36.9997 35.4166C37.083 35.5833 37.333 35.7499 37.583 35.8333L39.6529 36.4129C38.7267 37.5714 37.6634 38.616 36.4883 39.5221L36.083 37.3334C36.083 37.0834 35.9163 36.8334 35.6663 36.7501L31.333 34.5834C31.083 34.4167 30.833 34.4167 30.583 34.5834C29.9163 34.9167 29.1663 35.2501 28.333 35.5001C28.083 35.5001 27.833 35.7501 27.7497 36.0001L26.2497 40.5834C26.1664 40.8334 26.1664 41.0834 26.333 41.2501L27.583 43.1668C26.083 43.3335 24.583 43.3335 23.083 43.1668L24.2497 41.1668C24.4164 40.9168 24.4164 40.6668 24.333 40.4168L22.7497 35.8335C22.6664 35.5835 22.4164 35.4168 22.1664 35.3335C21.4164 35.1668 20.5831 34.8335 19.9164 34.4168C19.6664 34.3335 19.4164 34.3335 19.1664 34.4168L14.8331 36.5835C14.6664 36.6668 14.4998 36.9168 14.4164 37.1668L14.0049 39.3884C12.8408 38.4688 11.7901 37.4114 10.8773 36.2418L13.083 35.8333C13.333 35.8333 13.583 35.6666 13.6663 35.4166L15.7496 30.9999C15.9163 30.7499 15.9163 30.4999 15.7496 30.2499C15.4163 29.5832 15.0829 28.8332 14.8329 27.9999C14.8329 27.7499 14.5829 27.4999 14.3329 27.4166L9.74961 25.9166C9.49961 25.8333 9.24961 25.8333 9.08291 25.9999L7.16621 27.2499C7.08291 26.4999 6.99951 25.7499 6.99951 24.9999C6.99951 24.9058 7.00166 24.812 7.00313 24.7182C7.01289 24.3184 7.04004 23.9186 7.06006 23.5188C7.07998 23.2724 7.10508 23.0273 7.13477 22.7838L8.99951 23.9999C9.24951 24.1666 9.49951 24.1666 9.91621 23.9999L14.4995 22.4166C14.7495 22.3333 14.9162 22.0833 14.9995 21.8333C15.1662 21.0833 15.4995 20.25 15.9162 19.5833C15.9995 19.3333 15.9995 19.0833 15.9162 18.8333L13.7495 14.5C13.6662 14.3333 13.4162 14.1667 13.1662 14.0833L10.9446 13.6719C11.8643 12.5078 12.9216 11.4571 14.0912 10.5443L14.4997 12.75C14.4997 13 14.6664 13.25 14.9164 13.3333L19.2497 15.4166C19.4997 15.5833 19.7497 15.5833 19.9997 15.4166C20.6664 15.0833 21.4164 14.7499 22.2497 14.4999C22.4997 14.4999 22.7497 14.2499 22.833 13.9999L24.4163 9.4166C24.4996 9.1666 24.4996 8.9166 24.333 8.6666L23.1169 6.80186C23.8438 6.71328 24.5832 6.6666 25.333 6.6666C26.0828 6.6666 26.8223 6.71328 27.5491 6.80186L26.333 8.6667C26.1663 8.9167 26.1663 9.1667 26.333 9.5L27.833 14.0833C27.9163 14.3333 28.1663 14.5 28.4163 14.5833C29.1663 14.75 29.9163 15.0833 30.6663 15.5C30.9163 15.5833 31.1663 15.5833 31.4163 15.5L35.7496 13.3333C35.9163 13.25 36.0829 13 36.1663 12.75L36.7275 10.6653C37.8694 11.576 38.9013 12.6192 39.7989 13.7718L37.6662 14.1667C37.4162 14.1667 37.1662 14.3334 37.0829 14.5834L34.9162 18.9167C34.7495 19.1667 34.7495 19.4167 34.9162 19.6667C35.2495 20.3334 35.5829 21.0834 35.8329 21.9167C35.8329 22.1667 36.0829 22.4167 36.3329 22.5L40.9162 24.0833C41.1662 24.1666 41.4162 24.1666 41.5829 24.0833L43.4996 22.8333C43.5814 23.5697 43.6628 24.3061 43.6657 25.0425C43.6654 25.1624 43.6638 25.2819 43.6611 25.4014C43.6424 26.0453 43.5712 26.6894 43.4997 27.3333ZM29.297 42.8976L27.833 40.6667L29.083 36.8334C29.7497 36.6667 30.333 36.4167 30.9163 36.0834L34.4996 37.9167L34.9993 40.5577C33.2681 41.6399 31.3458 42.4414 29.297 42.8976ZM15.6062 40.5199L16.083 38L19.6663 36.1667C20.2496 36.5 20.833 36.75 21.4996 36.9167L22.7496 40.75L21.3439 42.892C19.2808 42.4296 17.3462 41.6169 15.6062 40.5199ZM7.4542 29.0493L9.66641 27.6667L13.4997 28.9167C13.6664 29.5834 13.9164 30.1667 14.2497 30.75L12.4164 34.3333L9.86855 34.8153C8.754 33.0695 7.92676 31.1249 7.4542 29.0493ZM9.81309 15.2732L12.333 15.75L14.1663 19.3333C13.833 19.9166 13.583 20.5 13.4163 21.1666L9.58301 22.4166L7.44102 21.0109C7.90342 18.9478 8.71611 17.0132 9.81309 15.2732ZM21.2837 7.12119L22.6663 9.3334L21.4163 13.1667C20.7496 13.3334 20.1663 13.5834 19.583 13.9167L15.9997 12.0834L15.5177 9.53555C17.2635 8.421 19.2081 7.59375 21.2837 7.12119ZM34.9993 9.44229L34.4996 12.0834L30.9163 13.9167C30.333 13.5834 29.7496 13.3334 29.083 13.1667L27.833 9.3334L29.297 7.10254C31.3458 7.55859 33.2681 8.36006 34.9993 9.44229ZM43.2041 20.9153L40.9163 22.4167L37.083 21.1667C36.9163 20.5 36.6663 19.9167 36.333 19.3334L38.1663 15.7501L40.8353 15.2451C41.9242 16.9654 42.7356 18.8768 43.2041 20.9153Z" fill="black"/>
<path d="M25.3328 27.5C23.4995 27.5 21.9995 29 21.9995 30.8333C21.9995 32.6666 23.4995 34.1666 25.3328 34.1666C27.1661 34.1666 28.6661 32.6666 28.6661 30.8333C28.6661 29 27.1661 27.5 25.3328 27.5ZM25.3328 32.5C24.4161 32.5 23.6661 31.75 23.6661 30.8333C23.6661 29.9166 24.4161 29.1666 25.3328 29.1666C26.2495 29.1666 26.9995 29.9166 26.9995 30.8333C26.9995 31.75 26.2495 32.5 25.3328 32.5Z" fill="black"/>
<path d="M31.1663 21.6667C29.333 21.6667 27.833 23.1667 27.833 25C27.833 26.8333 29.333 28.3333 31.1663 28.3333C32.9996 28.3333 34.4996 26.8333 34.4996 25C34.4997 23.1667 32.9997 21.6667 31.1663 21.6667ZM31.1663 26.6667C30.2496 26.6667 29.4996 25.9167 29.4996 25C29.4996 24.0833 30.2496 23.3333 31.1663 23.3333C32.083 23.3333 32.833 24.0833 32.833 25C32.833 25.9167 32.083 26.6667 31.1663 26.6667Z" fill="black"/>
<path d="M25.3328 22.5C27.1661 22.5 28.6661 21 28.6661 19.1667C28.6661 17.3334 27.1661 15.8334 25.3328 15.8334C23.4995 15.8334 21.9995 17.3334 21.9995 19.1667C21.9995 21 23.4995 22.5 25.3328 22.5ZM25.3328 17.5C26.2495 17.5 26.9995 18.25 26.9995 19.1667C26.9995 20.0834 26.2495 20.8334 25.3328 20.8334C24.4161 20.8334 23.6661 20.0834 23.6661 19.1667C23.6661 18.25 24.4161 17.5 25.3328 17.5Z" fill="black"/>
<path d="M19.4998 21.6667C17.6665 21.6667 16.1665 23.1667 16.1665 25C16.1665 26.8333 17.6665 28.3333 19.4998 28.3333C21.3331 28.3333 22.8331 26.8333 22.8331 25C22.8331 23.1667 21.3331 21.6667 19.4998 21.6667ZM19.4998 26.6667C18.5831 26.6667 17.8331 25.9167 17.8331 25C17.8331 24.0833 18.5831 23.3333 19.4998 23.3333C20.4165 23.3333 21.1665 24.0833 21.1665 25C21.1665 25.9167 20.4164 26.6667 19.4998 26.6667Z" fill="black"/>
</g>
<defs>
<clipPath id="clip0_34_307">
<rect width="50" height="50" fill="white" transform="translate(0.333008)"/>
</clipPath>
</defs>
</svg>
