<svg width="61" height="56" viewBox="0 0 61 56" fill="none" xmlns="http://www.w3.org/2000/svg">
<path d="M54.9165 29.1458C54.4165 27.7708 53.4165 26.625 52.1665 25.9375L50.9165 25.4792V25.25C52.4165 25.25 53.6665 24.5625 53.9165 23.6458C53.9165 23.6458 54.1665 22.9583 52.6665 22.5C51.9165 22.2708 51.1665 22.2708 50.4165 22.2708C49.6665 22.2708 49.4165 22.7292 49.4165 22.7292C49.4165 23.1875 49.6665 24.1042 49.6665 24.1042C49.4165 24.5625 49.4165 25.0208 49.4165 25.0208L48.9165 24.7917C48.9165 24.7917 45.1665 18.1458 44.4165 17.4583C44.4165 17.4583 43.6665 16.5417 42.4165 16.3125C42.4165 16.3125 37.1665 15.625 30.6665 15.625C24.1665 15.625 18.4165 16.5417 18.9165 16.3125C17.9165 16.5417 17.1665 17 16.6665 17.6875C16.6665 17.6875 15.6665 18.8333 14.9165 20.2083L12.4165 25.0208L11.9165 25.25C11.6665 25.0208 11.6665 24.7917 11.6665 24.3333C11.6665 23.875 11.9165 22.9583 11.9165 22.9583C11.9165 22.9583 11.9165 22.5 10.9165 22.5C9.6665 22.5 7.4165 22.7292 7.6665 23.875C7.6665 23.875 7.9165 25.25 10.6665 25.4792V25.7083C9.9165 25.4792 9.4165 25.7083 9.1665 25.7083C7.9165 26.3958 6.6665 27.7708 6.4165 28.9167C6.4165 28.9167 5.9165 33.2708 5.9165 34.875C5.9165 35.7917 6.1665 37.8542 6.4165 43.3542C6.4165 44.2708 6.6665 44.9583 7.1665 45.6458C7.1665 45.6458 7.6665 46.3333 8.4165 46.3333H13.9165C13.9165 46.3333 15.1665 46.3333 15.1665 44.2708H46.6665C46.6665 46.3333 47.9165 46.3333 47.9165 46.3333H53.1665C53.6665 46.3333 54.1665 46.1042 54.4165 45.6458C54.6665 44.9583 54.9165 44.2708 55.1665 43.3542L55.6665 34.875C55.6665 31.8958 54.9165 29.1458 54.9165 29.1458ZM18.6665 18.1458C21.9165 16.7708 39.6665 17 42.4165 18.1458C44.1665 18.8333 46.4165 23.1875 47.1665 25.0208C47.1665 25.0208 44.4165 24.7917 30.6665 24.5625C16.9165 24.5625 13.6665 25.0208 13.6665 25.0208C14.6665 23.1875 17.1665 18.6042 18.6665 18.1458ZM8.4165 33.2708L8.6665 35.7917C8.9165 37.1667 8.9165 38.0833 8.9165 38.0833C8.9165 38.7708 7.9165 39.2292 7.9165 39.2292C7.9165 39.2292 7.1665 35.7917 7.1665 33.9583C7.1665 32.3542 7.6665 30.2917 7.6665 30.2917C7.9165 29.6042 8.4165 29.375 9.1665 29.1458C10.6665 29.1458 13.1665 29.6042 13.1665 29.6042C15.9165 29.8333 16.9165 33.5 16.9165 33.5C16.4165 33.5 9.4165 32.8125 9.4165 32.8125C8.4165 32.8125 8.4165 33.2708 8.4165 33.2708ZM38.1665 43.125L36.4165 41.9792H24.4165L22.6665 43.125H10.1665V41.75C10.1665 41.2917 10.4165 41.0625 10.6665 40.6042C11.1665 40.375 12.6665 39.6875 14.1665 39.4583H46.1665C46.9165 39.4583 49.6665 40.6042 49.6665 40.6042C49.9165 40.8333 50.1665 41.0625 50.1665 41.5208V42.8958L38.1665 43.125ZM53.4165 38.5417L53.1665 39.2292C53.1665 39.2292 52.1665 38.7708 52.1665 38.0833L52.6665 33.2708C52.6665 33.2708 52.9165 32.8125 51.6665 32.8125C50.4165 32.8125 44.6665 33.5 43.9165 33.5C44.4165 32.5833 45.1665 30.0625 47.6665 29.6042C47.6665 29.6042 49.4165 29.1458 51.6665 29.1458C51.6665 29.1458 52.9165 29.375 53.1665 30.2917C53.4165 30.9792 53.6665 31.6667 53.6665 32.3542L53.4165 38.5417Z" fill="black"/>
</svg>
