<svg width="67" height="50" viewBox="0 0 67 50" fill="none" xmlns="http://www.w3.org/2000/svg">
<path d="M3.88243 0.0168899C2.77863 0.193498 1.7902 0.801355 1.13457 1.70674C0.47895 2.61213 0.209841 3.74087 0.386449 4.84467C0.563057 5.94847 1.17091 6.93691 2.0763 7.59253C2.98169 8.24816 4.11043 8.51726 5.21423 8.34066H17.6999L18.449 10.4216L21.8618 20.8263L25.2745 31.231C25.6075 32.3131 27.0225 33.312 28.1046 33.312H57.2378C58.4031 33.312 59.7349 32.3131 60.0679 31.231L66.8101 10.4216C67.1431 9.33951 66.6436 8.34066 65.4783 8.34066H28.5208L25.3577 2.34754C25.0209 1.65966 24.5007 1.07809 23.8545 0.666872C23.2083 0.255653 22.4611 0.0307366 21.6953 0.0168899L5.04776 0.0168899C4.79855 -0.00562997 4.54782 -0.00562997 4.29862 0.0168899C4.13229 0.00689237 3.96552 0.00689237 3.79919 0.0168899L3.88243 0.0168899ZM30.1855 41.6357C27.8549 41.6357 26.0237 43.4669 26.0237 45.7976C26.0237 48.1283 27.8549 49.9595 30.1855 49.9595C32.5162 49.9595 34.3474 48.1283 34.3474 45.7976C34.3474 43.4669 32.5162 41.6357 30.1855 41.6357ZM55.1568 41.6357C52.8262 41.6357 50.995 43.4669 50.995 45.7976C50.995 48.1283 52.8262 49.9595 55.1568 49.9595C57.4875 49.9595 59.3187 48.1283 59.3187 45.7976C59.3187 43.4669 57.4875 41.6357 55.1568 41.6357Z" fill="black"/>
</svg>
