{
	"asset":{
		"generator":"Khronos glTF Blender I/O v4.3.47",
		"version":"2.0"
	},
	"scene":0,
	"scenes":[
		{
			"name":"Scene",
			"nodes":[
				5
			]
		}
	],
	"nodes":[
		{
			"mesh":0,
			"name":"Object_156",
			"translation":[
				-0.08114242553710938,
				0.00010009423567680642,
				0.008116550743579865
			]
		},
		{
			"mesh":1,
			"name":"Object_157",
			"translation":[
				0.005249500274658203,
				-2.79508822131902e-06,
				1.5692305169068277e-05
			]
		},
		{
			"mesh":2,
			"name":"Object_158",
			"translation":[
				-0.07237815856933594,
				0.001867906772531569,
				-0.0022075676824897528
			]
		},
		{
			"mesh":3,
			"name":"Object_162",
			"translation":[
				0.031609050929546356,
				-0.008611674420535564,
				0.010951511561870575
			]
		},
		{
			"children":[
				3
			],
			"mesh":4,
			"name":"Object_161",
			"rotation":[
				0.00713689811527729,
				-0.738339364528656,
				0.6657004356384277,
				0.10792139917612076
			],
			"translation":[
				-0.012552261352539062,
				0.009928198531270027,
				-0.17133089900016785
			]
		},
		{
			"children":[
				0,
				1,
				2,
				4
			],
			"mesh":5,
			"name":"Object_159",
			"scale":[
				3.1846601963043213,
				3.1846601963043213,
				3.1846601963043213
			],
			"translation":[
				-20.059144973754883,
				-0.00030906934989616275,
				-0.00047018396435305476
			]
		}
	],
	"materials":[
		{
			"doubleSided":true,
			"name":"Tyre_Rim_Texture",
			"pbrMetallicRoughness":{
				"baseColorTexture":{
					"index":0
				},
				"metallicFactor":0,
				"roughnessFactor":0.25
			}
		},
		{
			"doubleSided":true,
			"name":"Tyre_Texture",
			"normalTexture":{
				"index":1
			},
			"pbrMetallicRoughness":{
				"baseColorTexture":{
					"index":2
				},
				"metallicFactor":0,
				"metallicRoughnessTexture":{
					"index":3
				}
			}
		},
		{
			"doubleSided":true,
			"name":"Dark_01",
			"pbrMetallicRoughness":{
				"baseColorTexture":{
					"index":4
				},
				"metallicFactor":0,
				"roughnessFactor":0.5
			}
		},
		{
			"doubleSided":true,
			"name":"Brake_Secondary_Color",
			"pbrMetallicRoughness":{
				"baseColorTexture":{
					"index":5
				},
				"metallicFactor":0,
				"roughnessFactor":0.75
			}
		},
		{
			"doubleSided":true,
			"name":"vehicle_generic_smallspecmap__PAINT_2_.001",
			"pbrMetallicRoughness":{
				"baseColorFactor":[
					0.52252197265625,
					0.007375780027359724,
					0.004391700029373169,
					1
				],
				"metallicFactor":0.75,
				"roughnessFactor":0.25
			}
		},
		{
			"doubleSided":true,
			"name":"Brake_Disk_Texture",
			"normalTexture":{
				"index":6
			},
			"pbrMetallicRoughness":{
				"baseColorFactor":[
					0.21404099464416504,
					0.21404099464416504,
					0.21404099464416504,
					1
				],
				"metallicFactor":0.75,
				"roughnessFactor":0.5
			}
		}
	],
	"meshes":[
		{
			"name":"Object_106",
			"primitives":[
				{
					"attributes":{
						"POSITION":0,
						"NORMAL":1,
						"TEXCOORD_0":2
					},
					"indices":3,
					"material":0
				}
			]
		},
		{
			"name":"Object_107",
			"primitives":[
				{
					"attributes":{
						"POSITION":4,
						"NORMAL":5,
						"TEXCOORD_0":6,
						"TEXCOORD_1":7,
						"TEXCOORD_2":8,
						"TEXCOORD_3":9
					},
					"indices":10,
					"material":1
				}
			]
		},
		{
			"name":"Object_108",
			"primitives":[
				{
					"attributes":{
						"POSITION":11,
						"NORMAL":12,
						"TEXCOORD_0":13
					},
					"indices":14,
					"material":2
				}
			]
		},
		{
			"name":"Object_111",
			"primitives":[
				{
					"attributes":{
						"POSITION":15,
						"NORMAL":16,
						"TEXCOORD_0":17
					},
					"indices":18,
					"material":3
				}
			]
		},
		{
			"name":"Object_110",
			"primitives":[
				{
					"attributes":{
						"POSITION":19,
						"NORMAL":20,
						"TEXCOORD_0":21
					},
					"indices":22,
					"material":4
				}
			]
		},
		{
			"name":"Object_109",
			"primitives":[
				{
					"attributes":{
						"POSITION":23,
						"NORMAL":24,
						"TEXCOORD_0":25
					},
					"indices":26,
					"material":5
				}
			]
		}
	],
	"textures":[
		{
			"sampler":0,
			"source":0
		},
		{
			"sampler":0,
			"source":1
		},
		{
			"sampler":0,
			"source":2
		},
		{
			"sampler":0,
			"source":3
		},
		{
			"sampler":0,
			"source":4
		},
		{
			"sampler":0,
			"source":5
		},
		{
			"sampler":0,
			"source":6
		}
	],
	"images":[
		{
			"mimeType":"image/png",
			"name":"Dark_Silver_baseColor",
			"uri":"t/Dark_Silver_baseColor.png"
		},
		{
			"mimeType":"image/png",
			"name":"Tyre_Texture_normal",
			"uri":"t/Tyre_Texture_normal.png"
		},
		{
			"mimeType":"image/png",
			"name":"Tyre_Texture_baseColor",
			"uri":"t/Tyre_Texture_baseColor.png"
		},
		{
			"mimeType":"image/png",
			"name":"Tyre_Texture_metallicRoughness",
			"uri":"t/Tyre_Texture_metallicRoughness.png"
		},
		{
			"mimeType":"image/png",
			"name":"Dark_01_baseColor",
			"uri":"t/Dark_01_baseColor.png"
		},
		{
			"mimeType":"image/png",
			"name":"Brake_Secondary_Color_baseColor",
			"uri":"t/Brake_Secondary_Color_baseColor.png"
		},
		{
			"mimeType":"image/png",
			"name":"Brake_Disk_Texture_normal",
			"uri":"t/Brake_Disk_Texture_normal.png"
		}
	],
	"accessors":[
		{
			"bufferView":0,
			"componentType":5126,
			"count":3411,
			"max":[
				0.22845324873924255,
				0.27772828936576843,
				0.27006953954696655
			],
			"min":[
				-0.03033577650785446,
				-0.27793267369270325,
				-0.28559333086013794
			],
			"type":"VEC3"
		},
		{
			"bufferView":1,
			"componentType":5126,
			"count":3411,
			"type":"VEC3"
		},
		{
			"bufferView":2,
			"componentType":5126,
			"count":3411,
			"type":"VEC2"
		},
		{
			"bufferView":3,
			"componentType":5123,
			"count":13782,
			"type":"SCALAR"
		},
		{
			"bufferView":4,
			"componentType":5126,
			"count":928,
			"max":[
				0.14213228225708008,
				0.33960115909576416,
				0.3398374319076538
			],
			"min":[
				-0.11653973907232285,
				-0.3395998477935791,
				-0.33976054191589355
			],
			"type":"VEC3"
		},
		{
			"bufferView":5,
			"componentType":5126,
			"count":928,
			"type":"VEC3"
		},
		{
			"bufferView":6,
			"componentType":5126,
			"count":928,
			"type":"VEC2"
		},
		{
			"bufferView":7,
			"componentType":5126,
			"count":928,
			"type":"VEC2"
		},
		{
			"bufferView":8,
			"componentType":5126,
			"count":928,
			"type":"VEC2"
		},
		{
			"bufferView":9,
			"componentType":5126,
			"count":928,
			"type":"VEC2"
		},
		{
			"bufferView":10,
			"componentType":5123,
			"count":2892,
			"type":"SCALAR"
		},
		{
			"bufferView":11,
			"componentType":5126,
			"count":584,
			"max":[
				0.017255526036024094,
				0.07893948256969452,
				0.08709368109703064
			],
			"min":[
				-0.008202508091926575,
				-0.08268053829669952,
				-0.08295130729675293
			],
			"type":"VEC3"
		},
		{
			"bufferView":12,
			"componentType":5126,
			"count":584,
			"type":"VEC3"
		},
		{
			"bufferView":13,
			"componentType":5126,
			"count":584,
			"type":"VEC2"
		},
		{
			"bufferView":14,
			"componentType":5123,
			"count":1698,
			"type":"SCALAR"
		},
		{
			"bufferView":15,
			"componentType":5126,
			"count":104,
			"max":[
				0.019512291997671127,
				0.05566219240427017,
				0.14106731116771698
			],
			"min":[
				-0.0669977068901062,
				-0.03802879899740219,
				-0.11864268034696579
			],
			"type":"VEC3"
		},
		{
			"bufferView":16,
			"componentType":5126,
			"count":104,
			"type":"VEC3"
		},
		{
			"bufferView":17,
			"componentType":5126,
			"count":104,
			"type":"VEC2"
		},
		{
			"bufferView":18,
			"componentType":5123,
			"count":294,
			"type":"SCALAR"
		},
		{
			"bufferView":19,
			"componentType":5126,
			"count":150,
			"max":[
				0.05343221500515938,
				0.057420529425144196,
				0.14862887561321259
			],
			"min":[
				-0.07930774241685867,
				-0.029490554705262184,
				-0.14171141386032104
			],
			"type":"VEC3"
		},
		{
			"bufferView":20,
			"componentType":5126,
			"count":150,
			"type":"VEC3"
		},
		{
			"bufferView":21,
			"componentType":5126,
			"count":150,
			"type":"VEC2"
		},
		{
			"bufferView":22,
			"componentType":5123,
			"count":438,
			"type":"SCALAR"
		},
		{
			"bufferView":23,
			"componentType":5126,
			"count":127,
			"max":[
				0.01920364983379841,
				0.19848835468292236,
				0.20182812213897705
			],
			"min":[
				-0.01524533610790968,
				-0.2028825879096985,
				-0.20173178613185883
			],
			"type":"VEC3"
		},
		{
			"bufferView":24,
			"componentType":5126,
			"count":127,
			"type":"VEC3"
		},
		{
			"bufferView":25,
			"componentType":5126,
			"count":127,
			"type":"VEC2"
		},
		{
			"bufferView":26,
			"componentType":5123,
			"count":315,
			"type":"SCALAR"
		}
	],
	"bufferViews":[
		{
			"buffer":0,
			"byteLength":40932,
			"byteOffset":0,
			"target":34962
		},
		{
			"buffer":0,
			"byteLength":40932,
			"byteOffset":40932,
			"target":34962
		},
		{
			"buffer":0,
			"byteLength":27288,
			"byteOffset":81864,
			"target":34962
		},
		{
			"buffer":0,
			"byteLength":27564,
			"byteOffset":109152,
			"target":34963
		},
		{
			"buffer":0,
			"byteLength":11136,
			"byteOffset":136716,
			"target":34962
		},
		{
			"buffer":0,
			"byteLength":11136,
			"byteOffset":147852,
			"target":34962
		},
		{
			"buffer":0,
			"byteLength":7424,
			"byteOffset":158988,
			"target":34962
		},
		{
			"buffer":0,
			"byteLength":7424,
			"byteOffset":166412,
			"target":34962
		},
		{
			"buffer":0,
			"byteLength":7424,
			"byteOffset":173836,
			"target":34962
		},
		{
			"buffer":0,
			"byteLength":7424,
			"byteOffset":181260,
			"target":34962
		},
		{
			"buffer":0,
			"byteLength":5784,
			"byteOffset":188684,
			"target":34963
		},
		{
			"buffer":0,
			"byteLength":7008,
			"byteOffset":194468,
			"target":34962
		},
		{
			"buffer":0,
			"byteLength":7008,
			"byteOffset":201476,
			"target":34962
		},
		{
			"buffer":0,
			"byteLength":4672,
			"byteOffset":208484,
			"target":34962
		},
		{
			"buffer":0,
			"byteLength":3396,
			"byteOffset":213156,
			"target":34963
		},
		{
			"buffer":0,
			"byteLength":1248,
			"byteOffset":216552,
			"target":34962
		},
		{
			"buffer":0,
			"byteLength":1248,
			"byteOffset":217800,
			"target":34962
		},
		{
			"buffer":0,
			"byteLength":832,
			"byteOffset":219048,
			"target":34962
		},
		{
			"buffer":0,
			"byteLength":588,
			"byteOffset":219880,
			"target":34963
		},
		{
			"buffer":0,
			"byteLength":1800,
			"byteOffset":220468,
			"target":34962
		},
		{
			"buffer":0,
			"byteLength":1800,
			"byteOffset":222268,
			"target":34962
		},
		{
			"buffer":0,
			"byteLength":1200,
			"byteOffset":224068,
			"target":34962
		},
		{
			"buffer":0,
			"byteLength":876,
			"byteOffset":225268,
			"target":34963
		},
		{
			"buffer":0,
			"byteLength":1524,
			"byteOffset":226144,
			"target":34962
		},
		{
			"buffer":0,
			"byteLength":1524,
			"byteOffset":227668,
			"target":34962
		},
		{
			"buffer":0,
			"byteLength":1016,
			"byteOffset":229192,
			"target":34962
		},
		{
			"buffer":0,
			"byteLength":630,
			"byteOffset":230208,
			"target":34963
		}
	],
	"samplers":[
		{
			"magFilter":9729,
			"minFilter":9987
		}
	],
	"buffers":[
		{
			"byteLength":230840,
			"uri":"disk_3.bin"
		}
	]
}
