{
	"asset":{
		"generator":"Khronos glTF Blender I/O v4.3.47",
		"version":"2.0"
	},
	"scene":0,
	"scenes":[
		{
			"name":"Scene",
			"nodes":[
				1
			]
		}
	],
	"nodes":[
		{
			"mesh":0,
			"name":"Object_170",
			"rotation":[
				0.9377487301826477,
				0,
				0,
				0.3473144471645355
			]
		},
		{
			"children":[
				0
			],
			"mesh":1,
			"name":"Object_169",
			"rotation":[
				1,
				0,
				0,
				0
			]
		}
	],
	"materials":[
		{
			"doubleSided":true,
			"name":"Tyre_Texture.004",
			"normalTexture":{
				"index":0
			},
			"pbrMetallicRoughness":{
				"baseColorTexture":{
					"index":1
				},
				"metallicFactor":0,
				"metallicRoughnessTexture":{
					"index":2
				},
				"roughnessFactor":0.4909090995788574
			}
		},
		{
			"doubleSided":true,
			"name":"Tyre_Rim_Texture.006",
			"pbrMetallicRoughness":{
				"baseColorTexture":{
					"index":3
				},
				"metallicFactor":0,
				"roughnessFactor":0.25
			}
		}
	],
	"meshes":[
		{
			"name":"Object_116.003",
			"primitives":[
				{
					"attributes":{
						"POSITION":0,
						"NORMAL":1,
						"TEXCOORD_0":2,
						"TEXCOORD_1":3,
						"TEXCOORD_2":4,
						"TEXCOORD_3":5
					},
					"indices":6,
					"material":0
				}
			]
		},
		{
			"name":"Object_115.003",
			"primitives":[
				{
					"attributes":{
						"POSITION":7,
						"NORMAL":8,
						"TEXCOORD_0":9
					},
					"indices":10,
					"material":1
				}
			]
		}
	],
	"textures":[
		{
			"sampler":0,
			"source":0
		},
		{
			"sampler":0,
			"source":1
		},
		{
			"sampler":0,
			"source":2
		},
		{
			"sampler":0,
			"source":3
		}
	],
	"images":[
		{
			"mimeType":"image/png",
			"name":"Tyre_Texture_normal",
			"uri":"textures/Tyre_Texture_normal.png"
		},
		{
			"mimeType":"image/png",
			"name":"Leather_baseColor",
			"uri":"textures/Leather_baseColor.png"
		},
		{
			"mimeType":"image/png",
			"name":"Leather_baseColor",
			"uri":"textures/Leather_baseColor-1.png"
		},
		{
			"mimeType":"image/png",
			"name":"Dark_Silver_baseColor",
			"uri":"textures/Dark_Silver_baseColor.png"
		}
	],
	"accessors":[
		{
			"bufferView":0,
			"componentType":5126,
			"count":928,
			"max":[
				0.35507190227508545,
				0.8268625736236572,
				0.8273584246635437
			],
			"min":[
				-0.2749287486076355,
				-0.827344536781311,
				-0.8278155326843262
			],
			"type":"VEC3"
		},
		{
			"bufferView":1,
			"componentType":5126,
			"count":928,
			"type":"VEC3"
		},
		{
			"bufferView":2,
			"componentType":5126,
			"count":928,
			"type":"VEC2"
		},
		{
			"bufferView":3,
			"componentType":5126,
			"count":928,
			"type":"VEC2"
		},
		{
			"bufferView":4,
			"componentType":5126,
			"count":928,
			"type":"VEC2"
		},
		{
			"bufferView":5,
			"componentType":5126,
			"count":928,
			"type":"VEC2"
		},
		{
			"bufferView":6,
			"componentType":5123,
			"count":2892,
			"type":"SCALAR"
		},
		{
			"bufferView":7,
			"componentType":5126,
			"count":3404,
			"max":[
				0.35489901900291443,
				0.6764206290245056,
				0.6771671772003174
			],
			"min":[
				-0.27538660168647766,
				-0.6769022941589355,
				-0.676160454750061
			],
			"type":"VEC3"
		},
		{
			"bufferView":8,
			"componentType":5126,
			"count":3404,
			"type":"VEC3"
		},
		{
			"bufferView":9,
			"componentType":5126,
			"count":3404,
			"type":"VEC2"
		},
		{
			"bufferView":10,
			"componentType":5123,
			"count":13782,
			"type":"SCALAR"
		}
	],
	"bufferViews":[
		{
			"buffer":0,
			"byteLength":11136,
			"byteOffset":0,
			"target":34962
		},
		{
			"buffer":0,
			"byteLength":11136,
			"byteOffset":11136,
			"target":34962
		},
		{
			"buffer":0,
			"byteLength":7424,
			"byteOffset":22272,
			"target":34962
		},
		{
			"buffer":0,
			"byteLength":7424,
			"byteOffset":29696,
			"target":34962
		},
		{
			"buffer":0,
			"byteLength":7424,
			"byteOffset":37120,
			"target":34962
		},
		{
			"buffer":0,
			"byteLength":7424,
			"byteOffset":44544,
			"target":34962
		},
		{
			"buffer":0,
			"byteLength":5784,
			"byteOffset":51968,
			"target":34963
		},
		{
			"buffer":0,
			"byteLength":40848,
			"byteOffset":57752,
			"target":34962
		},
		{
			"buffer":0,
			"byteLength":40848,
			"byteOffset":98600,
			"target":34962
		},
		{
			"buffer":0,
			"byteLength":27232,
			"byteOffset":139448,
			"target":34962
		},
		{
			"buffer":0,
			"byteLength":27564,
			"byteOffset":166680,
			"target":34963
		}
	],
	"samplers":[
		{
			"magFilter":9729,
			"minFilter":9987
		}
	],
	"buffers":[
		{
			"byteLength":194244,
			"uri":"disk.bin"
		}
	]
}
