<svg width="32" height="12" viewBox="0 0 32 12" fill="none" xmlns="http://www.w3.org/2000/svg">
<path d="M5.44 0C2.44315 0 0 2.69465 0 6C0 9.30535 2.44315 12 5.44 12C6.78129 12 8.00994 11.4575 8.96 10.5648C9.91006 11.4575 11.1387 12 12.48 12C13.8213 12 15.0499 11.4575 16 10.5648C16.9501 11.4575 18.1787 12 19.52 12C20.8613 12 22.0899 11.4575 23.04 10.5648C23.9901 11.4575 25.2187 12 26.56 12C29.5568 12 32 9.30535 32 6C32 2.69465 29.5568 0 26.56 0C25.2187 0 23.9901 0.542478 23.04 1.4352C22.0899 0.542478 20.8613 0 19.52 0C18.1787 0 16.9501 0.542478 16 1.4352C15.0499 0.542478 13.8213 0 12.48 0C11.1387 0 9.91006 0.542478 8.96 1.4352C8.00994 0.542478 6.78129 0 5.44 0ZM5.44 1.41176C6.452 1.41176 7.37666 1.80614 8.09625 2.46369C7.43547 3.45699 7.04 4.67798 7.04 6C7.04 7.32202 7.43547 8.54301 8.09625 9.53631C7.37666 10.1939 6.452 10.5882 5.44 10.5882C3.13491 10.5882 1.28 8.54237 1.28 6C1.28 3.45763 3.13491 1.41176 5.44 1.41176ZM12.48 1.41176C13.492 1.41176 14.4167 1.80614 15.1362 2.46369C14.4755 3.45699 14.08 4.67798 14.08 6C14.08 7.32202 14.4755 8.54301 15.1362 9.53631C14.4167 10.1939 13.492 10.5882 12.48 10.5882C11.468 10.5882 10.5433 10.1939 9.82375 9.53631C10.4845 8.54301 10.88 7.32202 10.88 6C10.88 4.67798 10.4845 3.45699 9.82375 2.46369C10.5433 1.80614 11.468 1.41176 12.48 1.41176ZM19.52 1.41176C20.532 1.41176 21.4567 1.80614 22.1763 2.46369C21.5155 3.45699 21.12 4.67798 21.12 6C21.12 7.32202 21.5155 8.54301 22.1763 9.53631C21.4567 10.1939 20.532 10.5882 19.52 10.5882C18.508 10.5882 17.5833 10.1939 16.8638 9.53631C17.5245 8.54301 17.92 7.32202 17.92 6C17.92 4.67798 17.5245 3.45699 16.8638 2.46369C17.5833 1.80614 18.508 1.41176 19.52 1.41176ZM26.56 1.41176C28.8651 1.41176 30.72 3.45763 30.72 6C30.72 8.54237 28.8651 10.5882 26.56 10.5882C25.548 10.5882 24.6233 10.1939 23.9037 9.53631C24.5645 8.54301 24.96 7.32202 24.96 6C24.96 4.67798 24.5645 3.45699 23.9037 2.46369C24.6233 1.80614 25.548 1.41176 26.56 1.41176ZM8.96 3.55561C9.36354 4.26301 9.6 5.09884 9.6 6C9.6 6.90116 9.36354 7.73699 8.96 8.44439C8.55646 7.73699 8.32 6.90116 8.32 6C8.32 5.09884 8.55646 4.26301 8.96 3.55561ZM16 3.55561C16.4035 4.26301 16.64 5.09884 16.64 6C16.64 6.90116 16.4035 7.73699 16 8.44439C15.5965 7.73699 15.36 6.90116 15.36 6C15.36 5.09884 15.5965 4.26301 16 3.55561ZM23.04 3.55561C23.4435 4.26301 23.68 5.09884 23.68 6C23.68 6.90116 23.4435 7.73699 23.04 8.44439C22.6365 7.73699 22.4 6.90116 22.4 6C22.4 5.09884 22.6365 4.26301 23.04 3.55561Z" fill="black"/>
</svg>
